<svg xmlns="http://www.w3.org/2000/svg" xmlns:xlink="http://www.w3.org/1999/xlink" width="500" zoomAndPan="magnify" viewBox="0 0 375 374.999991" height="500" preserveAspectRatio="xMidYMid meet" version="1.0"><defs><clipPath id="aed4812167"><path d="M 130.214844 134.449219 L 145.070312 134.449219 L 145.070312 304.886719 L 130.214844 304.886719 Z M 130.214844 134.449219 " clip-rule="nonzero"/></clipPath><clipPath id="4cc6e5b8e3"><path d="M 137.640625 134.449219 C 139.609375 134.449219 141.5 135.234375 142.894531 136.625 C 144.285156 138.019531 145.070312 139.910156 145.070312 141.878906 L 145.070312 297.441406 C 145.070312 299.414062 144.285156 301.300781 142.894531 302.695312 C 141.5 304.089844 139.609375 304.871094 137.640625 304.871094 C 135.671875 304.871094 133.78125 304.089844 132.390625 302.695312 C 130.996094 301.300781 130.214844 299.414062 130.214844 297.441406 L 130.214844 141.878906 C 130.214844 139.910156 130.996094 138.019531 132.390625 136.625 C 133.78125 135.234375 135.671875 134.449219 137.640625 134.449219 Z M 137.640625 134.449219 " clip-rule="nonzero"/></clipPath><clipPath id="335c473dc2"><path d="M 197.429688 194.140625 L 213.238281 194.140625 L 213.238281 304.871094 L 197.429688 304.871094 Z M 197.429688 194.140625 " clip-rule="nonzero"/></clipPath><clipPath id="cc2d461e78"><path d="M 205.335938 194.140625 C 207.429688 194.140625 209.441406 194.972656 210.925781 196.453125 C 212.40625 197.9375 213.238281 199.949219 213.238281 202.042969 L 213.238281 296.964844 C 213.238281 299.0625 212.40625 301.074219 210.925781 302.554688 C 209.441406 304.039062 207.429688 304.871094 205.335938 304.871094 C 203.238281 304.871094 201.226562 304.039062 199.746094 302.554688 C 198.261719 301.074219 197.429688 299.0625 197.429688 296.964844 L 197.429688 202.042969 C 197.429688 199.949219 198.261719 197.9375 199.746094 196.453125 C 201.226562 194.972656 203.238281 194.140625 205.335938 194.140625 Z M 205.335938 194.140625 " clip-rule="nonzero"/></clipPath><clipPath id="ba9ac9c8ae"><path d="M 276.011719 70.523438 L 289.53125 70.523438 L 289.53125 146.953125 L 276.011719 146.953125 Z M 276.011719 70.523438 " clip-rule="nonzero"/></clipPath><clipPath id="14bd89f87d"><path d="M 282.769531 70.523438 C 286.503906 70.523438 289.53125 73.550781 289.53125 77.285156 L 289.53125 140.167969 C 289.53125 143.898438 286.503906 146.925781 282.769531 146.925781 C 279.035156 146.925781 276.011719 143.898438 276.011719 140.167969 L 276.011719 77.285156 C 276.011719 73.550781 279.035156 70.523438 282.769531 70.523438 Z M 282.769531 70.523438 " clip-rule="nonzero"/></clipPath><clipPath id="6e0893e3ae"><path d="M 197.183594 135.699219 L 211.851562 135.699219 L 211.851562 182.402344 L 197.183594 182.402344 Z M 197.183594 135.699219 " clip-rule="nonzero"/></clipPath><clipPath id="bcfa4d25dd"><path d="M 204.515625 135.699219 C 208.566406 135.699219 211.851562 138.984375 211.851562 143.035156 L 211.851562 175.019531 C 211.851562 179.070312 208.566406 182.351562 204.515625 182.351562 C 200.464844 182.351562 197.183594 179.070312 197.183594 175.019531 L 197.183594 143.035156 C 197.183594 138.984375 200.464844 135.699219 204.515625 135.699219 Z M 204.515625 135.699219 " clip-rule="nonzero"/></clipPath><clipPath id="6df6036e1f"><path d="M 52.585938 68.304688 L 67.828125 68.304688 L 67.828125 108.726562 L 52.585938 108.726562 Z M 52.585938 68.304688 " clip-rule="nonzero"/></clipPath><clipPath id="073289f8a6"><path d="M 60.207031 68.304688 C 64.417969 68.304688 67.828125 71.714844 67.828125 75.925781 L 67.828125 101.105469 C 67.828125 105.3125 64.417969 108.726562 60.207031 108.726562 C 56 108.726562 52.585938 105.3125 52.585938 101.105469 L 52.585938 75.925781 C 52.585938 71.714844 56 68.304688 60.207031 68.304688 Z M 60.207031 68.304688 " clip-rule="nonzero"/></clipPath><clipPath id="8442948150"><path d="M 53.160156 120.257812 L 67.828125 120.257812 L 67.828125 151.144531 L 53.160156 151.144531 Z M 53.160156 120.257812 " clip-rule="nonzero"/></clipPath><clipPath id="0d129aa3b9"><path d="M 60.492188 120.257812 C 64.542969 120.257812 67.828125 123.542969 67.828125 127.59375 L 67.828125 143.804688 C 67.828125 147.855469 64.542969 151.140625 60.492188 151.140625 C 56.441406 151.140625 53.160156 147.855469 53.160156 143.804688 L 53.160156 127.59375 C 53.160156 123.542969 56.441406 120.257812 60.492188 120.257812 Z M 60.492188 120.257812 " clip-rule="nonzero"/></clipPath><clipPath id="d74b2d139a"><path d="M 197.363281 135.707031 L 289.519531 135.707031 L 289.519531 151.148438 L 197.363281 151.148438 Z M 197.363281 135.707031 " clip-rule="nonzero"/></clipPath><clipPath id="3908113398"><path d="M 289.519531 143.429688 C 289.519531 147.691406 286.0625 151.148438 281.800781 151.148438 L 205.136719 151.148438 C 200.875 151.148438 197.417969 147.691406 197.417969 143.429688 C 197.417969 139.164062 200.875 135.707031 205.136719 135.707031 L 281.800781 135.707031 C 286.0625 135.707031 289.519531 139.164062 289.519531 143.429688 Z M 289.519531 143.429688 " clip-rule="nonzero"/></clipPath><clipPath id="cfacac521d"><path d="M 197.167969 68.300781 L 289.523438 68.300781 L 289.523438 84.574219 L 197.167969 84.574219 Z M 197.167969 68.300781 " clip-rule="nonzero"/></clipPath><clipPath id="c91189295d"><path d="M 289.523438 76.4375 C 289.523438 80.929688 285.878906 84.574219 281.386719 84.574219 L 205.308594 84.574219 C 200.816406 84.574219 197.171875 80.929688 197.171875 76.4375 C 197.171875 71.945312 200.816406 68.300781 205.308594 68.300781 L 281.386719 68.300781 C 285.878906 68.300781 289.523438 71.945312 289.523438 76.4375 Z M 289.523438 76.4375 " clip-rule="nonzero"/></clipPath><clipPath id="50f8b8e5be"><path d="M 52.511719 66.867188 L 145.054688 66.867188 L 145.054688 84.574219 L 52.511719 84.574219 Z M 52.511719 66.867188 " clip-rule="nonzero"/></clipPath><clipPath id="97218342ba"><path d="M 145.054688 75.722656 C 145.054688 80.609375 141.09375 84.574219 136.203125 84.574219 L 61.429688 84.574219 C 56.539062 84.574219 52.574219 80.609375 52.574219 75.722656 C 52.574219 70.832031 56.539062 66.867188 61.429688 66.867188 L 136.203125 66.867188 C 141.09375 66.867188 145.054688 70.832031 145.054688 75.722656 Z M 145.054688 75.722656 " clip-rule="nonzero"/></clipPath><clipPath id="4db61937d8"><path d="M 157.699219 66.863281 L 187.785156 66.863281 L 187.785156 84.570312 L 157.699219 84.570312 Z M 157.699219 66.863281 " clip-rule="nonzero"/></clipPath><clipPath id="87ea238ab8"><path d="M 187.785156 75.71875 C 187.785156 80.609375 183.824219 84.570312 178.933594 84.570312 L 166.585938 84.570312 C 161.695312 84.570312 157.730469 80.609375 157.730469 75.71875 C 157.730469 70.828125 161.695312 66.863281 166.585938 66.863281 L 178.933594 66.863281 C 183.824219 66.863281 187.785156 70.828125 187.785156 75.71875 Z M 187.785156 75.71875 " clip-rule="nonzero"/></clipPath><clipPath id="c0ba5575aa"><path d="M 164.097656 209.695312 L 178.953125 209.695312 L 178.953125 333.242188 L 164.097656 333.242188 Z M 164.097656 209.695312 " clip-rule="nonzero"/></clipPath><clipPath id="8f29e2dc99"><path d="M 171.527344 209.695312 C 173.496094 209.695312 175.386719 210.476562 176.777344 211.871094 C 178.171875 213.261719 178.953125 215.152344 178.953125 217.121094 L 178.953125 325.769531 C 178.953125 327.742188 178.171875 329.628906 176.777344 331.023438 C 175.386719 332.417969 173.496094 333.199219 171.527344 333.199219 C 169.554688 333.199219 167.667969 332.417969 166.273438 331.023438 C 164.878906 329.628906 164.097656 327.742188 164.097656 325.769531 L 164.097656 217.121094 C 164.097656 215.152344 164.878906 213.261719 166.273438 211.871094 C 167.667969 210.476562 169.554688 209.695312 171.527344 209.695312 Z M 171.527344 209.695312 " clip-rule="nonzero"/></clipPath><clipPath id="a567c038c9"><path d="M 308.960938 98.960938 L 322.414062 98.960938 L 322.414062 182.398438 L 308.960938 182.398438 Z M 308.960938 98.960938 " clip-rule="nonzero"/></clipPath><clipPath id="7ee8a576cf"><path d="M 315.6875 98.960938 C 317.472656 98.960938 319.183594 99.671875 320.441406 100.933594 C 321.703125 102.191406 322.414062 103.902344 322.414062 105.6875 L 322.414062 175.628906 C 322.414062 177.410156 321.703125 179.121094 320.441406 180.382812 C 319.183594 181.644531 317.472656 182.351562 315.6875 182.351562 C 313.902344 182.351562 312.191406 181.644531 310.933594 180.382812 C 309.671875 179.121094 308.960938 177.410156 308.960938 175.628906 L 308.960938 105.6875 C 308.960938 103.902344 309.671875 102.191406 310.933594 100.933594 C 312.191406 99.671875 313.902344 98.960938 315.6875 98.960938 Z M 315.6875 98.960938 " clip-rule="nonzero"/></clipPath><clipPath id="c58d595697"><path d="M 87.257812 105.949219 L 100.78125 105.949219 L 100.78125 182.378906 L 87.257812 182.378906 Z M 87.257812 105.949219 " clip-rule="nonzero"/></clipPath><clipPath id="9ff4a80315"><path d="M 94.019531 105.949219 C 97.753906 105.949219 100.78125 108.976562 100.78125 112.710938 L 100.78125 175.59375 C 100.78125 179.324219 97.753906 182.351562 94.019531 182.351562 C 90.285156 182.351562 87.257812 179.324219 87.257812 175.59375 L 87.257812 112.710938 C 87.257812 108.976562 90.285156 105.949219 94.019531 105.949219 Z M 94.019531 105.949219 " clip-rule="nonzero"/></clipPath><clipPath id="bd3f914e42"><path d="M 231.28125 175.367188 L 245.953125 175.367188 L 245.953125 232.382812 L 231.28125 232.382812 Z M 231.28125 175.367188 " clip-rule="nonzero"/></clipPath><clipPath id="ec373e776c"><path d="M 238.617188 175.367188 C 242.667969 175.367188 245.953125 178.648438 245.953125 182.699219 L 245.953125 225.003906 C 245.953125 229.054688 242.667969 232.339844 238.617188 232.339844 C 234.566406 232.339844 231.28125 229.054688 231.28125 225.003906 L 231.28125 182.699219 C 231.28125 178.648438 234.566406 175.367188 238.617188 175.367188 Z M 238.617188 175.367188 " clip-rule="nonzero"/></clipPath><clipPath id="816a1853f3"><path d="M 231.28125 288.085938 L 245.953125 288.085938 L 245.953125 333.296875 L 231.28125 333.296875 Z M 231.28125 288.085938 " clip-rule="nonzero"/></clipPath><clipPath id="e9cd31bf09"><path d="M 238.617188 288.085938 C 242.667969 288.085938 245.953125 291.367188 245.953125 295.417969 L 245.953125 325.9375 C 245.953125 329.988281 242.667969 333.273438 238.617188 333.273438 C 234.566406 333.273438 231.28125 329.988281 231.28125 325.9375 L 231.28125 295.417969 C 231.28125 291.367188 234.566406 288.085938 238.617188 288.085938 Z M 238.617188 288.085938 " clip-rule="nonzero"/></clipPath><clipPath id="927853397a"><path d="M 231.976562 244.402344 L 245.257812 244.402344 L 245.257812 278.800781 L 231.976562 278.800781 Z M 231.976562 244.402344 " clip-rule="nonzero"/></clipPath><clipPath id="7123c60cc5"><path d="M 238.617188 244.402344 C 240.378906 244.402344 242.066406 245.101562 243.3125 246.347656 C 244.558594 247.59375 245.257812 249.28125 245.257812 251.042969 L 245.257812 272.15625 C 245.257812 273.917969 244.558594 275.605469 243.3125 276.851562 C 242.066406 278.097656 240.378906 278.796875 238.617188 278.796875 C 236.855469 278.796875 235.167969 278.097656 233.921875 276.851562 C 232.675781 275.605469 231.976562 273.917969 231.976562 272.15625 L 231.976562 251.042969 C 231.976562 249.28125 232.675781 247.59375 233.921875 246.347656 C 235.167969 245.101562 236.855469 244.402344 238.617188 244.402344 Z M 238.617188 244.402344 " clip-rule="nonzero"/></clipPath><clipPath id="e39432eea0"><path d="M 136.183594 100.59375 L 255.175781 100.59375 L 255.175781 116.269531 L 136.183594 116.269531 Z M 136.183594 100.59375 " clip-rule="nonzero"/></clipPath><clipPath id="a3efea6332"><path d="M 255.175781 108.429688 C 255.175781 110.511719 254.347656 112.503906 252.878906 113.972656 C 251.410156 115.445312 249.414062 116.269531 247.335938 116.269531 L 144.074219 116.269531 C 141.996094 116.269531 140 115.445312 138.53125 113.972656 C 137.0625 112.503906 136.234375 110.511719 136.234375 108.429688 C 136.234375 106.351562 137.0625 104.359375 138.53125 102.886719 C 140 101.417969 141.996094 100.59375 144.074219 100.59375 L 247.335938 100.59375 C 249.414062 100.59375 251.410156 101.417969 252.878906 102.886719 C 254.347656 104.359375 255.175781 106.351562 255.175781 108.429688 Z M 255.175781 108.429688 " clip-rule="nonzero"/></clipPath><clipPath id="3e79356068"><path d="M 87.191406 100.597656 L 125.222656 100.597656 L 125.222656 116.277344 L 87.191406 116.277344 Z M 87.191406 100.597656 " clip-rule="nonzero"/></clipPath><clipPath id="56a6873fc0"><path d="M 125.222656 108.4375 C 125.222656 110.515625 124.394531 112.507812 122.925781 113.980469 C 121.457031 115.449219 119.460938 116.277344 117.382812 116.277344 L 95.085938 116.277344 C 93.007812 116.277344 91.011719 115.449219 89.542969 113.980469 C 88.074219 112.507812 87.246094 110.515625 87.246094 108.4375 C 87.246094 106.359375 88.074219 104.363281 89.542969 102.894531 C 91.011719 101.425781 93.007812 100.597656 95.085938 100.597656 L 117.382812 100.597656 C 119.460938 100.597656 121.457031 101.425781 122.925781 102.894531 C 124.394531 104.363281 125.222656 106.359375 125.222656 108.4375 Z M 125.222656 108.4375 " clip-rule="nonzero"/></clipPath><clipPath id="ac36539138"><path d="M 231.265625 169.183594 L 322.402344 169.183594 L 322.402344 185.398438 L 231.265625 185.398438 Z M 231.265625 169.183594 " clip-rule="nonzero"/></clipPath><clipPath id="70bfb071df"><path d="M 322.402344 177.289062 C 322.402344 181.769531 318.773438 185.398438 314.296875 185.398438 L 239.378906 185.398438 C 234.902344 185.398438 231.273438 181.769531 231.273438 177.289062 C 231.273438 172.8125 234.902344 169.183594 239.378906 169.183594 L 314.296875 169.183594 C 318.773438 169.183594 322.402344 172.8125 322.402344 177.289062 Z M 322.402344 177.289062 " clip-rule="nonzero"/></clipPath><clipPath id="bf4bcefca3"><path d="M 164.097656 167.863281 L 177.378906 167.863281 L 177.378906 196.863281 L 164.097656 196.863281 Z M 164.097656 167.863281 " clip-rule="nonzero"/></clipPath><clipPath id="c01aa804c6"><path d="M 170.738281 167.863281 C 172.5 167.863281 174.1875 168.5625 175.433594 169.808594 C 176.679688 171.050781 177.378906 172.742188 177.378906 174.503906 L 177.378906 190.203125 C 177.378906 191.964844 176.679688 193.652344 175.433594 194.898438 C 174.1875 196.144531 172.5 196.84375 170.738281 196.84375 C 168.976562 196.84375 167.289062 196.144531 166.042969 194.898438 C 164.796875 193.652344 164.097656 191.964844 164.097656 190.203125 L 164.097656 174.503906 C 164.097656 172.742188 164.796875 171.050781 166.042969 169.808594 C 167.289062 168.5625 168.976562 167.863281 170.738281 167.863281 Z M 170.738281 167.863281 " clip-rule="nonzero"/></clipPath><clipPath id="e73d965ce2"><path d="M 164.0625 321.527344 L 245.246094 321.527344 L 245.246094 337.5 L 164.0625 337.5 Z M 164.0625 321.527344 " clip-rule="nonzero"/></clipPath><clipPath id="b15a6d755f"><path d="M 245.246094 329.511719 C 245.246094 331.632812 244.402344 333.664062 242.90625 335.160156 C 241.40625 336.660156 239.375 337.5 237.257812 337.5 L 172.070312 337.5 C 169.953125 337.5 167.921875 336.660156 166.425781 335.160156 C 164.925781 333.664062 164.085938 331.632812 164.085938 329.511719 C 164.085938 327.394531 164.925781 325.363281 166.425781 323.867188 C 167.921875 322.367188 169.953125 321.527344 172.070312 321.527344 L 237.257812 321.527344 C 239.375 321.527344 241.40625 322.367188 242.90625 323.867188 C 244.402344 325.363281 245.246094 327.394531 245.246094 329.511719 Z M 245.246094 329.511719 " clip-rule="nonzero"/></clipPath></defs><g clip-path="url(#aed4812167)"><g clip-path="url(#4cc6e5b8e3)"><path fill="#fcfcfc" d="M 130.214844 134.449219 L 145.070312 134.449219 L 145.070312 304.886719 L 130.214844 304.886719 Z M 130.214844 134.449219 " fill-opacity="1" fill-rule="nonzero"/></g></g><g clip-path="url(#335c473dc2)"><g clip-path="url(#cc2d461e78)"><path fill="#fcfcfc" d="M 197.429688 194.140625 L 213.238281 194.140625 L 213.238281 304.871094 L 197.429688 304.871094 Z M 197.429688 194.140625 " fill-opacity="1" fill-rule="nonzero"/></g></g><g clip-path="url(#ba9ac9c8ae)"><g clip-path="url(#14bd89f87d)"><path fill="#fcfcfc" d="M 276.011719 70.523438 L 289.53125 70.523438 L 289.53125 146.953125 L 276.011719 146.953125 Z M 276.011719 70.523438 " fill-opacity="1" fill-rule="nonzero"/></g></g><g clip-path="url(#6e0893e3ae)"><g clip-path="url(#bcfa4d25dd)"><path fill="#fcfcfc" d="M 197.183594 135.699219 L 211.851562 135.699219 L 211.851562 182.34375 L 197.183594 182.34375 Z M 197.183594 135.699219 " fill-opacity="1" fill-rule="nonzero"/></g></g><g clip-path="url(#6df6036e1f)"><g clip-path="url(#073289f8a6)"><path fill="#fcfcfc" d="M 52.585938 68.304688 L 67.828125 68.304688 L 67.828125 108.726562 L 52.585938 108.726562 Z M 52.585938 68.304688 " fill-opacity="1" fill-rule="nonzero"/></g></g><g clip-path="url(#8442948150)"><g clip-path="url(#0d129aa3b9)"><path fill="#fcfcfc" d="M 53.160156 120.257812 L 67.828125 120.257812 L 67.828125 151.144531 L 53.160156 151.144531 Z M 53.160156 120.257812 " fill-opacity="1" fill-rule="nonzero"/></g></g><g clip-path="url(#d74b2d139a)"><g clip-path="url(#3908113398)"><path fill="#fcfcfc" d="M 289.519531 135.707031 L 289.519531 151.148438 L 197.421875 151.148438 L 197.421875 135.707031 Z M 289.519531 135.707031 " fill-opacity="1" fill-rule="nonzero"/></g></g><g clip-path="url(#cfacac521d)"><g clip-path="url(#c91189295d)"><path fill="#fcfcfc" d="M 289.523438 68.300781 L 289.523438 84.574219 L 197.167969 84.574219 L 197.167969 68.300781 Z M 289.523438 68.300781 " fill-opacity="1" fill-rule="nonzero"/></g></g><g clip-path="url(#50f8b8e5be)"><g clip-path="url(#97218342ba)"><path fill="#fcfcfc" d="M 145.054688 66.867188 L 145.054688 84.574219 L 52.582031 84.574219 L 52.582031 66.867188 Z M 145.054688 66.867188 " fill-opacity="1" fill-rule="nonzero"/></g></g><g clip-path="url(#4db61937d8)"><g clip-path="url(#87ea238ab8)"><path fill="#fcfcfc" d="M 187.785156 66.863281 L 187.785156 84.570312 L 157.699219 84.570312 L 157.699219 66.863281 Z M 187.785156 66.863281 " fill-opacity="1" fill-rule="nonzero"/></g></g><g clip-path="url(#c0ba5575aa)"><g clip-path="url(#8f29e2dc99)"><path fill="#e9e9e9" d="M 164.097656 209.695312 L 178.953125 209.695312 L 178.953125 333.183594 L 164.097656 333.183594 Z M 164.097656 209.695312 " fill-opacity="1" fill-rule="nonzero"/></g></g><g clip-path="url(#a567c038c9)"><g clip-path="url(#7ee8a576cf)"><path fill="#e9e9e9" d="M 308.960938 98.960938 L 322.414062 98.960938 L 322.414062 182.34375 L 308.960938 182.34375 Z M 308.960938 98.960938 " fill-opacity="1" fill-rule="nonzero"/></g></g><g clip-path="url(#c58d595697)"><g clip-path="url(#9ff4a80315)"><path fill="#e9e9e9" d="M 87.257812 105.949219 L 100.78125 105.949219 L 100.78125 182.378906 L 87.257812 182.378906 Z M 87.257812 105.949219 " fill-opacity="1" fill-rule="nonzero"/></g></g><g clip-path="url(#bd3f914e42)"><g clip-path="url(#ec373e776c)"><path fill="#e9e9e9" d="M 231.28125 175.367188 L 245.953125 175.367188 L 245.953125 232.324219 L 231.28125 232.324219 Z M 231.28125 175.367188 " fill-opacity="1" fill-rule="nonzero"/></g></g><g clip-path="url(#816a1853f3)"><g clip-path="url(#e9cd31bf09)"><path fill="#e9e9e9" d="M 231.28125 288.085938 L 245.953125 288.085938 L 245.953125 333.296875 L 231.28125 333.296875 Z M 231.28125 288.085938 " fill-opacity="1" fill-rule="nonzero"/></g></g><g clip-path="url(#927853397a)"><g clip-path="url(#7123c60cc5)"><path fill="#e9e9e9" d="M 231.976562 244.402344 L 245.257812 244.402344 L 245.257812 278.800781 L 231.976562 278.800781 Z M 231.976562 244.402344 " fill-opacity="1" fill-rule="nonzero"/></g></g><g clip-path="url(#e39432eea0)"><g clip-path="url(#a3efea6332)"><path fill="#e9e9e9" d="M 255.175781 100.59375 L 255.175781 116.269531 L 136.246094 116.269531 L 136.246094 100.59375 Z M 255.175781 100.59375 " fill-opacity="1" fill-rule="nonzero"/></g></g><g clip-path="url(#3e79356068)"><g clip-path="url(#56a6873fc0)"><path fill="#e9e9e9" d="M 125.222656 100.597656 L 125.222656 116.277344 L 87.253906 116.277344 L 87.253906 100.597656 Z M 125.222656 100.597656 " fill-opacity="1" fill-rule="nonzero"/></g></g><g clip-path="url(#ac36539138)"><g clip-path="url(#70bfb071df)"><path fill="#e9e9e9" d="M 322.402344 169.183594 L 322.402344 185.398438 L 231.265625 185.398438 L 231.265625 169.183594 Z M 322.402344 169.183594 " fill-opacity="1" fill-rule="nonzero"/></g></g><g clip-path="url(#bf4bcefca3)"><g clip-path="url(#c01aa804c6)"><path fill="#e9e9e9" d="M 164.097656 167.863281 L 177.378906 167.863281 L 177.378906 196.863281 L 164.097656 196.863281 Z M 164.097656 167.863281 " fill-opacity="1" fill-rule="nonzero"/></g></g><g clip-path="url(#e73d965ce2)"><g clip-path="url(#b15a6d755f)"><path fill="#e9e9e9" d="M 245.246094 321.527344 L 245.246094 337.5 L 164.0625 337.5 L 164.0625 321.527344 Z M 245.246094 321.527344 " fill-opacity="1" fill-rule="nonzero"/></g></g></svg>