<?xml version="1.0" encoding="UTF-8" standalone="yes"?>
<svg width="500" viewBox="0 0 375 375" height="500" version="1.2" baseProfile="tiny-ps" xmlns="http://www.w3.org/2000/svg">
  <title>talltree-technologies-svg-logo</title>
  <desc>Tall Tree Technologies' logo</desc>
  <defs/>
  <path fill="#fff" d="M-37.5-37.5h450v450h-450z"/>
  <path fill="#f5f5f0" d="M-37.5-37.5h450v450h-450z"/>
  <g>
    <path fill="#e87722" d="M184.57 184.387c0-10.504.008-20.739-.011-30.973-.008-3.371-.16-3.508-3.61-3.504-6.578 0-13.156.04-19.734.04-10.16.003-17.844-6.962-18.059-17.036-.215-10.105 6.64-16.676 15.739-17.996a24.5 24.5 0 0 1 3.55-.223c20.743.016 41.485-.164 62.22.137 26.51.383 48.062 11.598 65.413 31.242 12.27 13.89 19.098 30.297 21.524 48.582 2.277 17.133 1.492 34.133-3.82 50.63-6.973 21.655-19.641 39.425-37.997 53.003-15.3 11.316-32.445 18.27-51.324 20.379-29.777 3.336-57.785-1.871-82.535-19.55-23.067-16.477-36.942-38.985-41.903-66.946-1.164-6.586-1.597-13.203-1.593-19.887.035-39.746-.008-79.488-.02-119.234-.004-3.895 0-3.91-3.953-3.832-3.285.07-6.574.32-9.855.254-9.54-.188-16.918-7.414-16.387-17.653.484-9.379 7.328-16.304 17.023-16.402 7.309-.074 14.617-.016 21.926-.016 33.441 0 66.883.012 100.324-.004 5.82-.003 11.09 1.313 14.84 6.164 4.192 5.426 5.188 11.504 2.527 17.786-2.699 6.375-7.847 9.726-14.808 9.922-22.652.64-45.309.261-67.965.27-6.68 0-5.492-.017-5.496 5.382-.012 39.562-.129 79.125.094 118.687.16 28.813 19.636 55.403 47.105 64.235 22.313 7.176 44.031 5.703 64.227-6.93 16.777-10.492 27.52-25.613 31.023-45.148 3.52-19.621.742-38.282-11.832-54.493-9.613-12.386-22.36-19.64-37.965-21.765-2.207-.297-2.918.629-2.894 2.738.07 6.027.023 12.059.027 18.09.012 25.945.031 51.894.035 77.844 0 6.867-1.597 13.12-7.527 17.355-10.848 7.75-25.738 1.215-27.777-12.105a46.4 46.4 0 0 1-.524-7.098c.012-20.555 0-41.113-.008-61.945m0 0"/>
  </g>
</svg>